<svg version="1.1" id="Layer_1" xmlns="http://www.w3.org/2000/svg" xmlns:xlink="http://www.w3.org/1999/xlink" x="0px" y="0px"
	 width="100%" viewBox="0 0 512 512" enable-background="new 0 0 512 512" xml:space="preserve">
<path fill="#222222" opacity="1.000000" stroke="none" 
	d="
M1.000000,476.000000 
	C1.000000,330.309265 1.000000,184.618515 1.352756,38.407150 
	C2.292454,36.950672 3.059345,36.082287 3.439351,35.068832 
	C9.154737,19.826214 19.560539,9.300758 34.806759,3.518799 
	C36.015709,3.060318 36.942226,1.857109 38.000000,1.000000 
	C183.690750,1.000000 329.381500,1.000000 475.591309,1.353227 
	C477.046570,2.292559 477.915497,3.057892 478.928925,3.437891 
	C494.171051,9.153078 504.697235,19.557892 510.479675,34.803677 
	C510.938629,36.013683 512.142395,36.941193 513.000000,37.999992 
	C513.000000,183.690750 513.000000,329.381500 512.646851,475.591431 
	C511.874634,476.580994 511.256134,476.982178 511.065521,477.531769 
	C505.409668,493.838043 494.481201,504.912048 478.278961,510.854584 
	C477.378204,511.184937 476.753326,512.267578 476.000000,513.000000 
	C330.309265,513.000000 184.618515,513.000000 38.407082,512.647217 
	C36.950508,511.707703 36.082043,510.941132 35.068623,510.561218 
	C19.826147,504.847137 9.304868,494.438354 3.519910,479.196259 
	C3.060690,477.986328 1.857465,477.058777 1.000000,476.000000 
M161.975540,370.604248 
	C182.668289,372.450378 202.633881,370.422760 220.431625,358.569977 
	C241.892792,344.277466 250.890167,323.993347 247.932541,298.521210 
	C245.265045,275.547974 230.845505,262.155273 210.381317,254.243256 
	C202.181686,251.073074 193.684280,248.673645 185.324722,245.916412 
	C173.028854,241.860886 160.431686,238.523285 148.525742,233.536118 
	C136.633972,228.554871 128.773544,219.431503 128.236526,205.705811 
	C127.716125,192.404968 132.276321,181.227615 144.166534,174.560806 
	C149.672470,171.473679 156.171127,169.421127 162.445709,168.574692 
	C183.842819,165.688278 208.295883,173.608444 214.593094,200.000366 
	C225.012146,200.000366 235.417450,200.000366 246.164719,200.000366 
	C244.297211,182.333572 236.653641,168.290482 222.592148,158.018356 
	C196.643539,139.062546 152.118637,137.891739 125.187004,155.495041 
	C103.806122,169.470215 96.165581,189.848587 99.082039,214.543106 
	C101.709114,236.787338 115.260231,250.305801 135.454620,257.924316 
	C142.593353,260.617462 149.947449,262.744110 157.219864,265.077545 
	C170.811142,269.438507 184.655838,273.141815 197.931686,278.309296 
	C207.442642,282.011292 214.898926,288.965332 217.802460,299.384583 
	C222.990067,318.000092 213.696747,336.154449 195.586807,343.010529 
	C184.191605,347.324524 172.483765,347.426971 160.668671,345.187714 
	C144.304321,342.086243 134.250900,332.089142 129.515182,316.401398 
	C128.853546,314.209656 128.494110,311.926666 128.027496,309.832611 
	C117.560051,309.832611 107.484787,309.832611 97.207130,309.832611 
	C97.643814,325.144562 102.861916,338.100372 113.426346,348.726685 
	C126.551628,361.928833 142.924088,368.185516 161.975540,370.604248 
M291.346527,274.499756 
	C291.346527,305.928162 291.346527,337.356567 291.346527,368.700073 
	C301.417480,368.700073 310.832397,368.700073 320.813354,368.700073 
	C320.813354,335.179688 320.813354,301.964447 320.813354,268.403595 
	C347.169342,268.403595 372.953033,268.403595 398.954376,268.403595 
	C398.954376,260.476471 398.954376,252.904221 398.954376,244.872559 
	C372.817841,244.872559 346.908295,244.872559 320.835022,244.872559 
	C320.835022,219.673203 320.835022,194.933914 320.835022,169.585205 
	C353.100677,169.585205 385.127380,169.585205 417.210907,169.585205 
	C417.210907,161.388809 417.210907,153.805801 417.210907,146.305161 
	C375.167084,146.305161 333.429688,146.305161 291.346588,146.305161 
	C291.346588,188.912354 291.346588,231.206039 291.346527,274.499756 
z"/>
<path fill="#000000" opacity="1.000000" stroke="none" 
	d="
M37.531342,1.000000 
	C36.942226,1.857109 36.015709,3.060318 34.806759,3.518799 
	C19.560539,9.300758 9.154737,19.826214 3.439351,35.068832 
	C3.059345,36.082287 2.292454,36.950672 1.352756,37.943268 
	C1.000000,25.740049 1.000000,13.480098 1.000000,1.000000 
	C13.020000,1.000000 25.041342,1.000000 37.531342,1.000000 
z"/>
<path fill="#000000" opacity="1.000000" stroke="none" 
	d="
M513.000000,37.531334 
	C512.142395,36.941193 510.938629,36.013683 510.479675,34.803677 
	C504.697235,19.557892 494.171051,9.153078 478.928925,3.437891 
	C477.915497,3.057892 477.046570,2.292559 476.055206,1.353227 
	C488.259949,1.000000 500.519897,1.000000 513.000000,1.000000 
	C513.000000,13.020000 513.000000,25.041342 513.000000,37.531334 
z"/>
<path fill="#000000" opacity="1.000000" stroke="none" 
	d="
M1.000000,476.468658 
	C1.857465,477.058777 3.060690,477.986328 3.519910,479.196259 
	C9.304868,494.438354 19.826147,504.847137 35.068623,510.561218 
	C36.082043,510.941132 36.950508,511.707703 37.943199,512.647217 
	C25.740049,513.000000 13.480098,513.000000 1.000000,513.000000 
	C1.000000,500.980011 1.000000,488.958649 1.000000,476.468658 
z"/>
<path fill="#000000" opacity="1.000000" stroke="none" 
	d="
M476.468689,513.000000 
	C476.753326,512.267578 477.378204,511.184937 478.278961,510.854584 
	C494.481201,504.912048 505.409668,493.838043 511.065521,477.531769 
	C511.256134,476.982178 511.874634,476.580994 512.646851,476.055298 
	C513.000000,488.259949 513.000000,500.519897 513.000000,513.000000 
	C500.980011,513.000000 488.958649,513.000000 476.468689,513.000000 
z"/>
<path fill="#FDFDFD" opacity="1.000000" stroke="none" 
	d="
M161.529480,370.515869 
	C142.924088,368.185516 126.551628,361.928833 113.426346,348.726685 
	C102.861916,338.100372 97.643814,325.144562 97.207130,309.832611 
	C107.484787,309.832611 117.560051,309.832611 128.027496,309.832611 
	C128.494110,311.926666 128.853546,314.209656 129.515182,316.401398 
	C134.250900,332.089142 144.304321,342.086243 160.668671,345.187714 
	C172.483765,347.426971 184.191605,347.324524 195.586807,343.010529 
	C213.696747,336.154449 222.990067,318.000092 217.802460,299.384583 
	C214.898926,288.965332 207.442642,282.011292 197.931686,278.309296 
	C184.655838,273.141815 170.811142,269.438507 157.219864,265.077545 
	C149.947449,262.744110 142.593353,260.617462 135.454620,257.924316 
	C115.260231,250.305801 101.709114,236.787338 99.082039,214.543106 
	C96.165581,189.848587 103.806122,169.470215 125.187004,155.495041 
	C152.118637,137.891739 196.643539,139.062546 222.592148,158.018356 
	C236.653641,168.290482 244.297211,182.333572 246.164719,200.000366 
	C235.417450,200.000366 225.012146,200.000366 214.593094,200.000366 
	C208.295883,173.608444 183.842819,165.688278 162.445709,168.574692 
	C156.171127,169.421127 149.672470,171.473679 144.166534,174.560806 
	C132.276321,181.227615 127.716125,192.404968 128.236526,205.705811 
	C128.773544,219.431503 136.633972,228.554871 148.525742,233.536118 
	C160.431686,238.523285 173.028854,241.860886 185.324722,245.916412 
	C193.684280,248.673645 202.181686,251.073074 210.381317,254.243256 
	C230.845505,262.155273 245.265045,275.547974 247.932541,298.521210 
	C250.890167,323.993347 241.892792,344.277466 220.431625,358.569977 
	C202.633881,370.422760 182.668289,372.450378 161.529480,370.515869 
z"/>
<path fill="#FBFBFB" opacity="1.000000" stroke="none" 
	d="
M291.346558,273.999756 
	C291.346588,231.206039 291.346588,188.912354 291.346588,146.305161 
	C333.429688,146.305161 375.167084,146.305161 417.210907,146.305161 
	C417.210907,153.805801 417.210907,161.388809 417.210907,169.585205 
	C385.127380,169.585205 353.100677,169.585205 320.835022,169.585205 
	C320.835022,194.933914 320.835022,219.673203 320.835022,244.872559 
	C346.908295,244.872559 372.817841,244.872559 398.954376,244.872559 
	C398.954376,252.904221 398.954376,260.476471 398.954376,268.403595 
	C372.953033,268.403595 347.169342,268.403595 320.813354,268.403595 
	C320.813354,301.964447 320.813354,335.179688 320.813354,368.700073 
	C310.832397,368.700073 301.417480,368.700073 291.346527,368.700073 
	C291.346527,337.356567 291.346527,305.928162 291.346558,273.999756 
z"/>
</svg>